<?xml version="1.0" encoding="UTF-8"?><svg id="Layer_2" xmlns="http://www.w3.org/2000/svg" viewBox="0 0 248.6387 41.6066"><g id="Components"><g id="a291fbb3-8798-49cd-8336-a481cf136c9f_1"><path d="m141.8232,36.0076h4.958V9.4966h5.9971v-4.3133h-16.9775v4.3288h6.0225v26.4954Z" style="fill:#253447;"/><path d="m117.9282,36.0579h4.2856l4.9424-22.7926-1.0088.0039c-1.2031-.001-2.4053-.001-3.6084-.0058l-.001.0048c-.1084.6183-.2148,1.2356-.3213,1.8538l-.4355,2.5214c-.2461,1.4184-.4912,2.8359-.7344,4.2553-.165.9637-.3271,1.9274-.4902,2.891l-.3701,2.1838c-.0254.1529-.0576.3067-.0898.4596l-.249,1.2443-.2832-1.0024c-.0967-.3444-.1543-.6821-.21-1.0082l-1.915-11.1714c-.125-.7411-.2495-1.4823-.3794-2.2215-1.0776-.0068-2.1553-.0077-3.2515-.0068h-.4053l-2.6943,15.7575-.2661-1.311c-.1895-.9327-.375-1.9341-.5835-3.1503-.145-.8466-.2881-1.6922-.4307-2.5389-.1577-.9347-.3154-1.8683-.4766-2.802l-.3774-2.1673c-.2192-1.2481-.438-2.4973-.6465-3.7473-.0034-.0203-.0068-.0348-.0098-.0455-.0093.0019-.0283.001-.0576.001-1.1777.0048-2.3579.0039-3.5361.0039h-1.0181l4.9409,22.7897h4.2402l2.4897-12.6217.4116-.0281.0845.2119,2.4546,12.4388Zm-.8022-22.7839h.0024-.0024Z" style="fill:#253447;"/><path d="m93.3931,13.2643c-1.1807,0-2.3613.0019-3.5425.0039l-.9663.001c-.4082.001-.8301.0019-1.2319.0513-1.0024.1229-1.6406.6018-1.897,1.4233-.1104.3541-.1694.7276-.1704,1.0788-.0088,4.7439-.0083,9.4878-.0078,14.2317l.0005,3.4358c-.001.1035-.0015.1519.0024.2003.0479.5447.1592,1.1659.6206,1.639.4419.4538,1.0376.6841,1.77.686,2.8833.0116,5.7661.0097,8.6479.0048l1.3662-.001c.2168-.001.4731-.0077.7212-.0493.7217-.1258,1.2236-.4441,1.5337-.9743.2275-.388.3428-.8176.3433-1.2762.002-3.0226.0024-14.9496-.001-17.89-.0005-.2312-.0068-.478-.0503-.7092-.1636-.8727-.6035-1.4107-1.3457-1.6448-.4072-.1277-.8511-.1964-1.2832-.1993-1.5029-.0087-3.0063-.0116-4.5098-.0116Zm2.4556,18.8682h-5.4912v-14.9187h5.4912v14.9187Z" style="fill:#253447;"/><path d="m159.2383,13.2643c-1.127,0-2.2539.0019-3.3818.0029l-1.1279.0019c-.3623.001-.8135.0019-1.2334.0513-.7998.0958-1.3564.4189-1.7012.9898-.251.4141-.3682.9037-.3682,1.5394-.001,5.816-.001,11.6319.002,17.4479,0,.209.0146.4325.0459.7034.1436,1.2636.9824,1.9961,2.3018,2.0086,2.6826.0261,5.4141.0203,8.0547.0135l2.3037-.0048c.4219-.001.8281-.1064,1.2051-.3125.7139-.3899,1.0781-1.043,1.084-1.9428h0c.0234-3.1784-.0039-18.1996-.0439-18.637-.1533-.865-.5879-1.4049-1.3271-1.641-.417-.1335-.8682-.2051-1.3047-.208-1.5029-.0097-3.0059-.0126-4.5088-.0126Zm2.459,18.8673h-5.4932v-14.9187h5.4932v14.9187Z" style="fill:#253447;"/><path d="m128.7062,24.7964v-4.6325h9.7799v4.6325h-9.7799Z" style="fill:#f7941d;"/><path d="m177.5225,5.6864l-.1602.03c-.1309.0203-.2617.0416-.3926.0668-1.0098.1974-1.6475.7237-1.9482,1.611-.1836.5399-.209,1.0924-.209,1.609l-.001,24.032c.001.5447.0273.955.085,1.3284.1387.9085.5586,1.5181,1.2842,1.8645.4131.1974.8584.297,1.3242.297h3.9434c2.6279,0,5.2568,0,7.8857-.0029.2568,0,.5322-.0058.7988-.0493,1.0459-.1703,1.6953-.6676,1.9824-1.5191.1553-.4596.2383-.9443.2393-1.4029.0127-3.7077.0127-5.397.0127-7.9049l.002-3.8363v-.0039c-3.0566.0019-6.0605.0029-9.0645-.0039v.0058c.0068,1.3768.0078,2.7537-.001,4.1314v.0106c.0049,0,.0049.001.0166,0,.8867-.0077,1.7725-.0087,2.6611-.0048h1.3721v6.4071h-7.5381V9.874h7.5605v4.2127h4.9893c-.0068-1.1591-.042-5.8682-.082-6.1517-.1582-1.1465-.7979-1.8383-1.9531-2.1151-.1602-.0387-.3213-.0668-.4834-.0948l-.2178-.0387h-12.1064Z" style="fill:#253447;"/><path d="m238.4365,25.7834l.4189.3812c.1084.0997.165.21.2061.3048l.7178,1.6352c1.2197,2.7778,2.4385,5.5547,3.6543,8.3345.0391.0919.0303.09.1279.0909,1.2979-.0077,2.5967-.0058,3.8965-.0058l1.1807.001c-1.9053-3.995-3.8105-7.9891-5.7207-11.9812-.1191-.2477-.1182-.4557.0039-.6937,1.5107-2.9288,3.0146-5.8614,4.5195-8.7931l.6455-1.2588c.0049-.0087.0088-.0184.0137-.0271l-.5.001c-1.5332,0-3.0654-.0019-4.6006.0058-.8848,1.8829-1.7656,3.7406-2.6475,5.5992l-1.4902,3.1194-.3828-.119-.0469-.1954V5.0711h-4.8682v31.4338h4.8721v-10.7214Z" style="fill:#253447;"/><path d="m204.0693,13.7684c-1.2119,0-2.4229.0019-3.6348.0039l-.7275.001c-.3779,0-.8057,0-1.2041.0513-.9805.1258-1.5898.567-1.8623,1.3497-.126.3628-.1934.774-.1943,1.1882-.0127,5.7976-.0098,11.5971-.0068,17.3966,0,.2351.0156.4818.0469.7537.1504,1.2723.9531,1.9815,2.2588,1.998,3.3691.0406,6.7949.0232,10.1094.0058.6396-.0039,1.1816-.2109,1.6084-.6144.4482-.4238.6699-.9734.6768-1.6797.0127-1.2298.0107-2.4585.0078-3.6883l-.002-1.2743c0-.0513-.0049-.6763-.0088-1.0285h-4.6152v4.8968h-5.4482v-6.976h.418c.9502.001,5.6621.0087,8.2188.0019.792-.0019,1.4375-.6366,1.4395-1.4155-.0029-1.4891-.0029-2.9743-.0029-4.4594l-.0029-3.8992c0-.2167-.0059-.4702-.0488-.7141-.165-.9221-.6377-1.4804-1.4463-1.7068-.415-.1151-.8369-.1771-1.2207-.18-1.4531-.0077-2.9053-.0106-4.3584-.0106Zm2.4434,9.423h-5.4492v-5.9824h5.4492v5.9824Z" style="fill:#253447;"/><path d="m223.0312,13.7684c-1.2119,0-2.4229.0019-3.6348.0039l-.7275.001c-.3779,0-.8057,0-1.2041.0513-.9805.1258-1.5898.567-1.8623,1.3497-.126.3628-.1934.774-.1943,1.1882-.0127,5.7976-.0098,11.5971-.0068,17.3966,0,.2351.0156.4818.0469.7537.1504,1.2723.9531,1.9815,2.2588,1.998,3.3691.0406,6.7959.0232,10.1094.0058.6396-.0039,1.1816-.2109,1.6084-.6144.4482-.4238.6699-.9734.6768-1.6797.0127-1.2298.0107-2.4585.0078-3.6883l-.002-1.2743c0-.0513-.0049-.6763-.0088-1.0285h-4.6152v4.8968h-5.4482v-6.976h.418c.9502.001,5.6621.0087,8.2188.0019.792-.0019,1.4375-.6366,1.4395-1.4155-.0029-1.4891-.0029-2.9743-.0029-4.4594l-.0029-3.8992c0-.2167-.0059-.4702-.0488-.7141-.165-.9221-.6377-1.4804-1.4463-1.7068-.415-.1151-.8369-.1771-1.2207-.18-1.4531-.0077-2.9053-.0106-4.3584-.0106Zm2.4434,9.423h-5.4492v-5.9824h5.4492v5.9824Z" style="fill:#253447;"/><path d="m64.1519,36.0221h5.0229v-13.2855h7.8296v13.2671h5.021l-.001-30.7788c0-.0135-.0005-.0281-.0015-.0416h-5.0225c-.0024.03-.0044.061-.0044.0909l-.0015,12.8597h-7.8301l-.0024-12.9507h-5.0103v30.8388Z" style="fill:#253447;"/><polygon points="11.1836 17.3259 16.9927 17.3259 24.3921 4.7981 33.4956 4.7429 33.7069 4.742 36.4848 0 12.334 .0561 12.2486 .0571 9.4483 4.7991 18.6202 4.7991 11.1836 17.3259" style="fill:#f7941d;"/><polygon points="13.8867 28.5428 20.6187 39.5254 20.7515 39.7412 23.2866 35.3234 23.3301 35.2469 19.2036 28.5428 13.8867 28.5428" style="fill:#253447;"/><polygon points="43.3462 10.5653 37.0186 21.2054 36.8805 21.4395 39.3082 25.1521 43.2159 18.3937 44.9527 21.1948 39.2745 30.9264 33.2834 21.7325 41.3907 7.8919 41.5241 7.6389 38.3508 2.8319 27.6101 21.1389 27.5656 21.2144 39.4536 39.5254 50.176 21.1049 50.2204 21.0285 43.3462 10.5653" style="fill:#253447;"/><polygon points="31.8946 7.8836 26.1009 7.8836 18.5397 20.8304 5.8101 20.8652 13.4966 7.8526 7.7315 7.8526 .1382 20.7424 0 20.9794 12.3716 41.5263 12.4155 41.5989 18.3418 41.5989 8.7705 25.8994 21.3262 25.8868 30.8086 41.5341 30.8521 41.6066 36.7285 41.6066 23.7378 21.7844 31.8946 7.8836" style="fill:#f7941d;"/></g></g></svg>