<svg xmlns="http://www.w3.org/2000/svg" viewBox="0 0 858.8 254.29"><defs><style>.cls-1{fill:#1c0606;}.cls-2{fill:#c60d0d;}.cls-3{fill:#fff;}</style></defs><g id="Layer_2" data-name="Layer 2"><g id="Layer_1-2" data-name="Layer 1"><path class="cls-1" d="M557.57,32.67l1.17,42.43H535.19V0h33L581.8,40.42h.54L594.12,0h34.09V75.1H603.6l.75-42.22-.64-.1-14,42.32H571.89L558.1,32.67Z"/><path class="cls-1" d="M663,0h26.83l29.28,75.1H691.64l-3.92-11H663.85l-3.71,11H633.41Zm13,26.2-6.15,18.57h12.2Z"/><path class="cls-1" d="M749.13,45.19h-.21V75.1H724.41V0h24.4V27.68H749L769.07,0h29.7L770.56,34.36,800.15,75.1h-31Z"/><path class="cls-1" d="M805.34,0H857V21H829.1v6.48h26.2V47.1H829.1v7h29.7v21H805.34Z"/><path class="cls-1" d="M568.92,165.61a43.87,43.87,0,0,1-15.33-2.44,30.61,30.61,0,0,1-10.87-6.68,26.61,26.61,0,0,1-6.47-10A35.81,35.81,0,0,1,534.13,134V88.39h25.24v42.85q0,5.41,2.6,8.44a10.49,10.49,0,0,0,14.75,0q2.6-3,2.59-8.44V88.39h25.14V134a33.7,33.7,0,0,1-2.28,12.47,27.76,27.76,0,0,1-6.74,10,31.56,31.56,0,0,1-11.08,6.68A44.74,44.74,0,0,1,568.92,165.61Z"/><path class="cls-1" d="M642,165.61a50.26,50.26,0,0,1-9-.79,48.75,48.75,0,0,1-8.49-2.32,54.18,54.18,0,0,1-7.69-3.58,39.23,39.23,0,0,1-6.47-4.6l15.38-16.71a24.84,24.84,0,0,0,7.05,5.1,19.94,19.94,0,0,0,9.07,2.22,9.68,9.68,0,0,0,3.87-.75,2.74,2.74,0,0,0,1.76-2.76,2.87,2.87,0,0,0-.59-1.81,6.57,6.57,0,0,0-2.07-1.53,31,31,0,0,0-4.08-1.75q-2.61-1-6.52-2.24a55.15,55.15,0,0,1-7.32-3,25.45,25.45,0,0,1-6.21-4.3,18.94,18.94,0,0,1-4.29-6.11,20.68,20.68,0,0,1-1.6-8.55,23.21,23.21,0,0,1,2.87-11.91,25.09,25.09,0,0,1,7.37-8,30.19,30.19,0,0,1,10.13-4.52,46.6,46.6,0,0,1,11.14-1.38,43.31,43.31,0,0,1,15.11,2.86A40.38,40.38,0,0,1,675,97.41l-15.7,16A16.45,16.45,0,0,0,653,108.6a16.72,16.72,0,0,0-6.68-1.65,10.59,10.59,0,0,0-4.46.8,2.69,2.69,0,0,0-1.69,2.6,2.73,2.73,0,0,0,1.74,2.55,48.88,48.88,0,0,0,5.68,2.11q4,1.29,8.48,3a36.73,36.73,0,0,1,8.23,4.41,23.15,23.15,0,0,1,6.2,6.62,18.18,18.18,0,0,1,2.44,9.77,24.64,24.64,0,0,1-2.7,11.82,25.73,25.73,0,0,1-7.11,8.39,31.06,31.06,0,0,1-9.92,5A39.3,39.3,0,0,1,642,165.61Z"/><path class="cls-1" d="M682.83,88.39h51.66v21h-27.9v6.48h26.2v19.62h-26.2v7h29.7v21H682.83Z"/><path class="cls-1" d="M531.79,213.91A40,40,0,0,1,535,197.63a36,36,0,0,1,8.74-12.36,39.1,39.1,0,0,1,13.21-7.85,51,51,0,0,1,33.1,0,39.82,39.82,0,0,1,13.26,7.85,35.92,35.92,0,0,1,8.8,12.36,40.18,40.18,0,0,1,3.18,16.28,41.34,41.34,0,0,1-3.18,16.44,37.3,37.3,0,0,1-8.8,12.68A39.92,39.92,0,0,1,590,251.14a49.15,49.15,0,0,1-33.1,0A39.19,39.19,0,0,1,543.72,243,37.43,37.43,0,0,1,535,230.35,41.17,41.17,0,0,1,531.79,213.91Zm26.84,0a19.86,19.86,0,0,0,1.11,6.79,16.21,16.21,0,0,0,3.08,5.3,13.38,13.38,0,0,0,4.72,3.45,14.58,14.58,0,0,0,5.94,1.22A14,14,0,0,0,584.09,226a16,16,0,0,0,3.13-5.3,19.86,19.86,0,0,0,1.11-6.79,19.06,19.06,0,0,0-1.11-6.63,14.35,14.35,0,0,0-3.13-5.09,14.88,14.88,0,0,0-4.72-3.24,14.71,14.71,0,0,0-5.89-1.16,15.05,15.05,0,0,0-5.94,1.16,14,14,0,0,0-4.72,3.24,14.54,14.54,0,0,0-3.08,5.09A19.06,19.06,0,0,0,558.63,213.91Z"/><path class="cls-1" d="M650.59,205.74H673.5v20.69H650.7v25.45H625.88v-75.1h50.7v21.11h-26Z"/><path class="cls-2" d="M682.69,237.2h53V254h-53Z"/><polygon class="cls-2" points="103.67 0.42 0 104.09 0 253.59 405.32 253.59 508.71 150.2 508.71 0.42 103.67 0.42"/><polygon class="cls-2" points="435.16 254.29 509.1 254.29 509.1 180.35 435.16 254.29"/><path class="cls-3" d="M198.43,174.3a6.24,6.24,0,0,1-6.66-6.67v-51.1a12.5,12.5,0,0,1,2.82-8l2.78-3.47.25-.28c1.23-1.23,2.2-2.2,3.77-2.2.68,0,4.06.25,4.06,5.27v59.79C205.45,171.68,202.7,174.3,198.43,174.3Zm-87.41,0a6.25,6.25,0,0,1-6.67-6.67V83.69A6.25,6.25,0,0,1,111,77a12.66,12.66,0,0,1,9.86,4.66l34.76,42.2,34.43-43a10,10,0,0,1,8-3.87h3.47a3.8,3.8,0,0,1,3.89,3.89,4.1,4.1,0,0,1-1,2.7l-41.83,52.23c-2.18,2.69-4.52,4-7,4s-4.57-1.29-6.88-3.94L118,98.77v68.86C118,171.68,115.28,174.3,111,174.3Z"/><path class="cls-3" d="M224.17,173.43c-7.44,0-11.71-4.27-11.71-11.71V82.82c0-4,2.76-6.67,7-6.67a6.25,6.25,0,0,1,6.67,6.67v77.45H289.8V82.82c0-4,2.75-6.67,7-6.67a6.25,6.25,0,0,1,6.67,6.67v78.9c0,7.44-4.33,11.71-11.88,11.71Z"/><path class="cls-3" d="M321.92,173.43c-7.44,0-11.71-4.27-11.71-11.71v-73c0-7.44,4.27-11.71,11.71-11.71h70.73c7.44,0,11.71,4.27,11.71,11.71v73c0,7.44-4.27,11.71-11.71,11.71Zm68.76-13.16V90.18H323.9v70.09Z"/></g></g></svg>