<svg data-name="Layer 1" viewBox="0 0 169.4 36.72" id="svg31" xmlns="http://www.w3.org/2000/svg"><defs id="defs10"><clipPath id="clip-path"><path class="cls-1" id="rect4" d="M0 0h169.4v36.72H0z"/></clipPath><clipPath id="clip-path-2"><path class="cls-1" id="rect7" d="M0 0h169.4v36.72H0z"/></clipPath><style id="style2">.cls-1{fill:none}.cls-4{fill:#fff}</style></defs><g id="PCWorld_Reverse_" fill="#ac1f2b" data-name="PCWorld (Reverse)"><g fill="#ac1f2b" id="g28" style="clip-path:url(#clip-path)"><g fill="#ac1f2b" id="g26" style="clip-path:url(#clip-path-2);fill:#ac1f2b;fill-opacity:1"><path class="cls-4" d="M6.15 25v11H0V2.4h9.52c9.32 0 14.42 1.45 14.42 10.67 0 9.67-7 11.93-11.78 11.93Zm0-17.45v11.68h5.19c4.47 0 6.35-1.54 6.35-6.11 0-3.84-1.35-5.57-6.49-5.57Z" id="path12" style="fill:#ac1f2b;fill-opacity:1"/><path class="cls-4" d="M25.16 19.23c0-10.58 7-17.5 16.59-17.5a23 23 0 0 1 9.56 2l-.67 5.87a22.5 22.5 0 0 0-8.89-1.93c-6.54 0-9.86 4.86-9.86 11.59s3.32 11.58 9.86 11.58a22.7 22.7 0 0 0 8.89-1.92l.67 5.86a22.9 22.9 0 0 1-9.56 2c-9.61 0-16.59-6.92-16.59-17.49" id="path14" style="fill:#ac1f2b;fill-opacity:1"/><path class="cls-4" id="polygon16" style="fill:#ac1f2b;fill-opacity:1" d="M87.97 36.05h-5.44l-7.5-22.45-7.45 22.45h-5.81L52.3 2.4h6.39l6.73 23.89 7.5-23.89h4.28l7.78 23.27L91.43 2.4h6.39z"/><path class="cls-4" d="M94.54 24.08c0-6.73 4.47-12.45 12.16-12.45s12.16 5.72 12.16 12.45-4.47 12.45-12.16 12.45-12.16-5.72-12.16-12.45m6.1 0c0 4.47 2.21 7.55 6.06 7.55s6-3.08 6-7.55-2.21-7.54-6-7.54-6.06 3.07-6.06 7.54" id="path18" style="fill:#ac1f2b;fill-opacity:1"/><path class="cls-4" d="M133.81 17.26h-2.21a4.9 4.9 0 0 0-4.37 2.4v16.39h-6V12h5.58l.15 2.55a9.42 9.42 0 0 1 6.39-2.94H135Z" id="path20" style="fill:#ac1f2b;fill-opacity:1"/><path class="cls-4" d="M144.82 36.53h-2.17c-4.27 0-6.15-2.83-6.15-6.3V0h6v27.78c0 3.85.53 3.85 2.89 3.85Z" id="path22" style="fill:#ac1f2b;fill-opacity:1"/><path class="cls-4" d="m163.73 36.05-.09-1.34a9.4 9.4 0 0 1-5.87 1.82c-7.69 0-11.77-5.72-11.77-12.45s4.08-12.45 11.77-12.45a9.5 9.5 0 0 1 5.63 1.59V0h6v36.05Zm-11.63-12c0 4.47 2.21 7.55 6.06 7.55s5.53-3.08 5.53-7.55-1.69-7.54-5.53-7.54-6.06 3.07-6.06 7.54" id="path24" style="fill:#ac1f2b;fill-opacity:1"/></g></g></g></svg>